
<svg width="25" height="18" viewBox="0 0 25 18" fill="none" xmlns="http://www.w3.org/2000/svg">
<path d="M16.2787 17.6638H0.700526V6.59644C0.698771 6.569 0.596661 4.83619 2.62533 2.7478C4.66672 0.646358 6.82767 0.64234 6.83529 0.642334H24.6986L16.2787 17.6638ZM15.3158 3.46948C15.2825 3.46824 12.1166 3.34961 9.8431 3.52905C8.82337 3.60956 8.03815 4.07059 7.55697 5.03296C6.86958 6.40788 4.36947 14.8972 4.36947 14.8972H8.27865L9.06088 12.0701H11.5267V14.8972H15.3158V3.46948ZM10.6244 6.65698C10.9818 6.18036 11.5166 6.29347 11.5267 6.29565V9.30347H9.8431C9.8431 9.30347 10.2635 7.13849 10.6244 6.65698Z" fill="white"/>
</svg>
