<svg width="20" height="21" viewBox="0 0 20 21" fill="none" xmlns="http://www.w3.org/2000/svg">
<path d="M11.3076 1.81738C12.0878 1.81738 12.8373 2.12193 13.3965 2.66602C13.72 2.98061 13.964 3.36773 14.1094 3.79492C14.2547 4.22221 14.297 4.67832 14.2324 5.125C14.685 5.06063 15.1465 5.10109 15.5811 5.24316C16.0155 5.38524 16.4121 5.62504 16.7393 5.94434L16.7734 5.97852C17.0472 6.24476 17.2654 6.56326 17.4141 6.91504C17.5627 7.26689 17.6387 7.64539 17.6387 8.02734C17.6387 8.40932 17.5627 8.78778 17.4141 9.13965C17.2654 9.49146 17.0472 9.8099 16.7734 10.0762L10.7275 16.0049C10.7096 16.0224 10.6954 16.0433 10.6855 16.0664C10.6757 16.0898 10.67 16.1153 10.6699 16.1406C10.6699 16.1661 10.6756 16.1914 10.6855 16.2148C10.6954 16.2382 10.7094 16.2596 10.7275 16.2773L11.9697 17.4951C12.0245 17.5484 12.0679 17.6123 12.0977 17.6826C12.1274 17.753 12.1426 17.8289 12.1426 17.9053C12.1426 17.9816 12.1274 18.0576 12.0977 18.1279C12.068 18.198 12.0243 18.2613 11.9697 18.3145C11.8579 18.4232 11.7077 18.4844 11.5518 18.4844C11.3958 18.4844 11.2457 18.4232 11.1338 18.3145L9.89258 17.0977C9.76469 16.9734 9.66317 16.8244 9.59375 16.6602C9.52438 16.496 9.48832 16.3198 9.48828 16.1416C9.48828 15.9633 9.52433 15.7863 9.59375 15.6221C9.66317 15.4579 9.76476 15.3088 9.89258 15.1846L15.9385 9.25586C16.1026 9.09606 16.2332 8.90441 16.3223 8.69336C16.4113 8.48237 16.457 8.25536 16.457 8.02637C16.457 7.79732 16.4113 7.57039 16.3223 7.35938C16.2332 7.14844 16.1025 6.9576 15.9385 6.79785L15.9033 6.76367C15.5682 6.43746 15.1191 6.2543 14.6514 6.25391C14.1837 6.25354 13.7341 6.43608 13.3984 6.76172L8.41797 11.6465L8.41699 11.6475L8.34863 11.7148C8.23677 11.8237 8.08678 11.8847 7.93066 11.8848C7.77454 11.8848 7.62458 11.8237 7.5127 11.7148C7.45793 11.6616 7.41449 11.5977 7.38477 11.5273C7.35506 11.457 7.33984 11.3811 7.33984 11.3047C7.33991 11.2285 7.35512 11.1532 7.38477 11.083C7.41449 11.0126 7.45793 10.9488 7.5127 10.8955L12.5635 5.94238C12.7272 5.78247 12.8566 5.59083 12.9453 5.37988C13.034 5.16903 13.0802 4.94262 13.0801 4.71387C13.0799 4.48496 13.0334 4.25772 12.9443 4.04688C12.8552 3.83617 12.7255 3.64493 12.5615 3.48535C12.226 3.1588 11.7758 2.97656 11.3076 2.97656C10.8394 2.97656 10.3892 3.1588 10.0537 3.48535L3.36914 10.041C3.25738 10.1496 3.10798 10.2108 2.95215 10.2109C2.79615 10.2109 2.64604 10.1497 2.53418 10.041C2.47943 9.98776 2.43597 9.92387 2.40625 9.85352C2.37663 9.7833 2.36137 9.70804 2.36133 9.63184C2.36133 9.55544 2.37652 9.47955 2.40625 9.40918C2.43597 9.33884 2.47944 9.27492 2.53418 9.22168L9.21875 2.66602C9.77791 2.12193 10.5274 1.81738 11.3076 1.81738ZM11.3076 4.13574C11.4638 4.13574 11.6137 4.19673 11.7256 4.30566C11.7802 4.35879 11.8238 4.42204 11.8535 4.49219C11.8832 4.56253 11.8984 4.63848 11.8984 4.71484C11.8984 4.79124 11.8832 4.86713 11.8535 4.9375C11.8238 5.00779 11.7803 5.07179 11.7256 5.125L6.78125 9.97363C6.61717 10.1334 6.48655 10.3242 6.39746 10.5352C6.30838 10.7462 6.26274 10.9731 6.2627 11.2021C6.2627 11.4312 6.30843 11.6581 6.39746 11.8691C6.48658 12.0803 6.61704 12.2718 6.78125 12.4316C7.11678 12.7582 7.56695 12.9404 8.03516 12.9404C8.50318 12.9403 8.95266 12.758 9.28809 12.4316L14.2324 7.58301C14.3443 7.47422 14.4943 7.41309 14.6504 7.41309C14.8064 7.41318 14.9566 7.47416 15.0684 7.58301C15.1231 7.63624 15.1666 7.7002 15.1963 7.77051C15.226 7.84082 15.2412 7.91685 15.2412 7.99316C15.2412 8.0693 15.2259 8.14469 15.1963 8.21484C15.1666 8.28513 15.123 8.34912 15.0684 8.40234L10.124 13.251C9.56486 13.7949 8.81521 14.0995 8.03516 14.0996C7.25504 14.0996 6.50553 13.7949 5.94629 13.251C5.67247 12.9847 5.45429 12.6663 5.30566 12.3145C5.15704 11.9626 5.08008 11.5841 5.08008 11.2021C5.08012 10.8204 5.15715 10.4425 5.30566 10.0908C5.45429 9.73895 5.67246 9.4206 5.94629 9.1543L10.8896 4.30566C11.0015 4.19674 11.1515 4.13575 11.3076 4.13574Z" fill="#777D85"/>
</svg>
